# xmcd
#
# Track frame offsets:
# 150
# 19398
# 33923
# 60865
# 83282
# 101307
# 119478
# 136488
# 150741
# 173003
# 202130
# 231142
# 246259
#
# Disc length: 3491 seconds
#
# Revision: 0
# Processed by: cddbd v1.5.1PL0 Copyright (c) Steve Scherf et al.
# Submitted via: Audion 3.0.2 (http://www.panic.com/audion/)
#
DISCID=9f0da10d
DTITLE=Various Artist - va
DYEAR=1900
DGENRE=
TTITLE0=Rhonda Vincent-You Can't Take It With You-Ragin' Live
TTITLE1=Rhonda Vincent-One Step Ahead-Ragin'Live
TTITLE2=Tracy Chapman-3000 Miles-Where You Live
TTITLE3=Tracy Chapman-Fast Car-Tracy Chapman
TTITLE4=Patty Larkin-Chldren-Red=Luck
TTITLE5=Patty Larkin-St. Augustine-Red=Luck
TTITLE6=Dolly Parton-The Grass Is Blue-The Grass Is Blue
TTITLE7=Dolly Parton-Cash on the Barrelhead-The Grass Is Blue
TTITLE8=Rickie Lee Jones-Company-The Duchess of Coolsville
TTITLE9=Rickie Lee Jones-Living It Up-The Duchess of Coolsville
TTITLE10=Rickie Lee Jones-Satellites (Demo)-The Duchess of Coolsville
TTITLE11=Shelby Lynne-You're The Man-Suit Yourself
TTITLE12=ShelbyLynne-Sleep-Suit YOurself
EXTD=
EXTT0=
EXTT1=
EXTT2=
EXTT3=
EXTT4=
EXTT5=
EXTT6=
EXTT7=
EXTT8=
EXTT9=
EXTT10=
EXTT11=
EXTT12=
PLAYORDER=
